<svg id="svg" version="1.1" xmlns="http://www.w3.org/2000/svg" xmlns:xlink="http://www.w3.org/1999/xlink" width="400" height="400" viewBox="0, 0, 400,400"><g id="svgg"><path id="path0" d="M104.800 75.673 C 88.845 79.015,78.908 89.322,76.527 105.000 C 74.144 120.687,85.212 137.476,100.600 141.517 C 101.480 141.748,102.941 142.131,103.846 142.368 C 105.974 142.926,114.026 142.926,116.154 142.368 C 117.059 142.131,118.520 141.750,119.400 141.523 C 129.766 138.841,139.494 129.213,142.359 118.800 C 142.631 117.810,143.022 116.447,143.227 115.772 C 144.775 110.673,143.188 99.907,139.934 93.434 C 133.708 81.048,117.722 72.966,104.800 75.673 M255.600 155.616 C 237.784 156.757,224.419 163.327,215.625 175.266 C 212.909 178.953,212.907 178.949,212.727 170.471 C 212.538 161.607,212.164 160.545,208.505 158.500 C 207.025 157.672,166.148 157.788,164.471 158.624 C 163.025 159.346,161.768 160.824,160.964 162.749 C 160.070 164.887,160.124 317.765,161.019 319.907 C 163.059 324.789,163.016 324.781,186.451 324.791 C 207.619 324.801,207.560 324.805,210.092 322.814 C 212.504 320.916,212.377 323.314,212.536 276.800 C 212.674 236.632,212.793 232.004,213.798 228.000 C 213.936 227.450,214.235 226.190,214.463 225.200 C 217.068 213.861,224.887 204.056,233.318 201.553 C 247.064 197.473,259.949 202.215,265.510 213.400 C 267.730 217.866,268.781 221.825,269.989 230.277 C 270.250 232.104,270.401 248.886,270.401 276.277 L 270.403 319.400 271.256 320.800 C 273.741 324.879,273.236 324.800,297.016 324.800 C 319.499 324.800,319.647 324.785,321.862 322.348 C 324.096 319.890,324.000 321.998,323.996 275.251 C 323.992 224.026,323.688 217.067,320.815 202.400 C 319.353 194.933,313.593 179.934,311.932 179.267 C 311.749 179.193,311.600 178.923,311.600 178.667 C 311.599 178.410,311.134 177.660,310.565 177.000 C 309.996 176.340,309.245 175.317,308.895 174.727 C 308.546 174.137,306.626 172.058,304.630 170.107 C 297.591 163.228,289.092 158.828,279.000 156.839 C 272.399 155.538,263.816 155.090,255.600 155.616 M88.168 158.754 C 86.216 159.945,84.478 162.347,84.018 164.489 C 83.258 168.033,83.454 316.162,84.222 318.749 C 85.956 324.587,86.864 324.800,110.000 324.800 C 132.537 324.800,133.409 324.627,135.445 319.755 C 136.333 317.630,136.269 165.017,135.379 162.887 C 134.638 161.115,133.063 159.390,131.449 158.585 C 129.426 157.576,89.847 157.731,88.168 158.754 " stroke="none" fill="#fafbfb" fill-rule="evenodd"></path><path id="path1" d="M43.100 0.292 C 42.055 0.375,41.200 0.614,41.200 0.822 C 41.200 1.030,40.480 1.200,39.600 1.200 C 38.720 1.200,38.000 1.380,38.000 1.600 C 38.000 1.820,37.460 2.000,36.800 2.000 C 36.140 2.000,35.600 2.180,35.600 2.400 C 35.600 2.620,35.251 2.800,34.824 2.800 C 34.397 2.800,33.936 2.980,33.800 3.200 C 33.664 3.420,33.113 3.600,32.576 3.600 C 32.039 3.600,31.600 3.780,31.600 4.000 C 31.600 4.220,31.240 4.400,30.800 4.400 C 30.360 4.400,29.999 4.535,29.997 4.700 C 29.993 5.065,28.051 6.000,27.297 6.000 C 26.998 6.000,26.864 6.180,27.000 6.400 C 27.136 6.620,26.916 6.800,26.512 6.800 C 26.107 6.800,25.517 7.160,25.200 7.600 C 24.883 8.040,24.331 8.400,23.974 8.400 C 23.616 8.400,22.998 8.760,22.600 9.200 C 22.202 9.640,21.675 10.000,21.430 10.000 C 21.079 10.000,16.685 13.785,15.084 15.468 C 11.470 19.264,10.000 20.973,10.000 21.379 C 10.000 21.652,9.640 22.202,9.200 22.600 C 8.760 22.998,8.400 23.616,8.400 23.974 C 8.400 24.331,8.040 24.883,7.600 25.200 C 7.160 25.517,6.800 26.107,6.800 26.512 C 6.800 26.916,6.620 27.136,6.400 27.000 C 6.180 26.864,6.000 26.998,6.000 27.297 C 6.000 28.051,5.065 29.993,4.700 29.997 C 4.535 29.999,4.400 30.360,4.400 30.800 C 4.400 31.240,4.220 31.600,4.000 31.600 C 3.780 31.600,3.600 32.039,3.600 32.576 C 3.600 33.113,3.420 33.664,3.200 33.800 C 2.980 33.936,2.800 34.397,2.800 34.824 C 2.800 35.251,2.620 35.600,2.400 35.600 C 2.180 35.600,2.000 36.140,2.000 36.800 C 2.000 37.460,1.820 38.000,1.600 38.000 C 1.380 38.000,1.200 38.705,1.200 39.567 C 1.200 40.464,0.987 41.204,0.700 41.300 C -0.036 41.545,-0.036 358.455,0.700 358.700 C 0.987 358.796,1.200 359.536,1.200 360.433 C 1.200 361.295,1.380 362.000,1.600 362.000 C 1.820 362.000,2.000 362.540,2.000 363.200 C 2.000 363.860,2.180 364.400,2.400 364.400 C 2.620 364.400,2.800 364.749,2.800 365.176 C 2.800 365.603,2.980 366.064,3.200 366.200 C 3.420 366.336,3.600 366.887,3.600 367.424 C 3.600 367.961,3.780 368.400,4.000 368.400 C 4.220 368.400,4.400 368.760,4.400 369.200 C 4.400 369.640,4.580 370.000,4.800 370.000 C 5.020 370.000,5.200 370.360,5.200 370.800 C 5.200 371.240,5.380 371.600,5.600 371.600 C 5.820 371.600,6.000 371.960,6.000 372.400 C 6.000 372.840,6.180 373.200,6.400 373.200 C 6.620 373.200,6.800 373.430,6.800 373.712 C 6.800 373.993,7.160 374.483,7.600 374.800 C 8.040 375.117,8.400 375.609,8.400 375.892 C 8.400 377.298,19.887 390.000,21.158 390.000 C 21.334 390.000,21.893 390.360,22.400 390.800 C 22.907 391.240,23.615 391.600,23.973 391.600 C 24.331 391.600,24.883 391.960,25.200 392.400 C 25.517 392.840,26.007 393.200,26.288 393.200 C 26.570 393.200,26.800 393.380,26.800 393.600 C 26.800 393.820,27.034 394.000,27.320 394.000 C 28.056 394.000,29.993 394.941,29.997 395.300 C 29.999 395.465,30.360 395.600,30.800 395.600 C 31.240 395.600,31.600 395.780,31.600 396.000 C 31.600 396.220,32.039 396.400,32.576 396.400 C 33.113 396.400,33.664 396.580,33.800 396.800 C 33.936 397.020,34.397 397.200,34.824 397.200 C 35.251 397.200,35.600 397.380,35.600 397.600 C 35.600 397.820,36.140 398.000,36.800 398.000 C 37.460 398.000,38.000 398.180,38.000 398.400 C 38.000 398.620,38.705 398.800,39.567 398.800 C 40.464 398.800,41.204 399.013,41.300 399.300 C 41.545 400.036,358.455 400.036,358.700 399.300 C 358.796 399.013,359.536 398.800,360.433 398.800 C 361.295 398.800,362.000 398.620,362.000 398.400 C 362.000 398.180,362.540 398.000,363.200 398.000 C 363.860 398.000,364.400 397.820,364.400 397.600 C 364.400 397.380,364.749 397.200,365.176 397.200 C 365.603 397.200,366.064 397.020,366.200 396.800 C 366.336 396.580,366.887 396.400,367.424 396.400 C 367.961 396.400,368.400 396.220,368.400 396.000 C 368.400 395.780,368.760 395.600,369.200 395.600 C 369.640 395.600,370.000 395.420,370.000 395.200 C 370.000 394.980,370.360 394.800,370.800 394.800 C 371.240 394.800,371.600 394.620,371.600 394.400 C 371.600 394.180,371.960 394.000,372.400 394.000 C 372.840 394.000,373.200 393.820,373.200 393.600 C 373.200 393.380,373.430 393.200,373.712 393.200 C 373.993 393.200,374.483 392.840,374.800 392.400 C 375.117 391.960,375.669 391.600,376.027 391.600 C 376.385 391.600,377.093 391.240,377.600 390.800 C 378.107 390.360,378.665 390.000,378.839 390.000 C 379.013 390.000,380.290 388.916,381.677 387.591 C 383.065 386.267,384.350 385.052,384.532 384.891 C 385.421 384.113,390.000 378.985,390.000 378.769 C 390.000 378.634,390.360 378.107,390.800 377.600 C 391.240 377.093,391.600 376.411,391.600 376.086 C 391.600 375.760,391.929 375.203,392.330 374.847 C 392.732 374.491,393.316 373.615,393.628 372.900 C 393.940 372.185,394.331 371.600,394.498 371.600 C 394.664 371.600,394.800 371.240,394.800 370.800 C 394.800 370.360,394.980 370.000,395.200 370.000 C 395.420 370.000,395.600 369.640,395.600 369.200 C 395.600 368.760,395.780 368.400,396.000 368.400 C 396.220 368.400,396.400 367.961,396.400 367.424 C 396.400 366.887,396.580 366.336,396.800 366.200 C 397.020 366.064,397.200 365.603,397.200 365.176 C 397.200 364.749,397.380 364.400,397.600 364.400 C 397.820 364.400,398.000 363.860,398.000 363.200 C 398.000 362.540,398.180 362.000,398.400 362.000 C 398.620 362.000,398.800 361.295,398.800 360.433 C 398.800 359.536,399.013 358.796,399.300 358.700 C 399.699 358.567,399.800 326.471,399.800 200.000 C 399.800 73.529,399.699 41.433,399.300 41.300 C 399.013 41.204,398.800 40.464,398.800 39.567 C 398.800 38.705,398.620 38.000,398.400 38.000 C 398.180 38.000,398.000 37.460,398.000 36.800 C 398.000 36.140,397.820 35.600,397.600 35.600 C 397.380 35.600,397.200 35.161,397.200 34.624 C 397.200 34.087,397.020 33.536,396.800 33.400 C 396.580 33.264,396.400 32.803,396.400 32.376 C 396.400 31.949,396.220 31.600,396.000 31.600 C 395.780 31.600,395.600 31.240,395.600 30.800 C 395.600 30.360,395.465 29.999,395.300 29.997 C 394.935 29.993,394.000 28.051,394.000 27.297 C 394.000 26.998,393.820 26.864,393.600 27.000 C 393.380 27.136,393.200 26.916,393.200 26.512 C 393.200 26.107,392.840 25.517,392.400 25.200 C 391.960 24.883,391.600 24.316,391.600 23.940 C 391.600 23.565,391.358 23.016,391.063 22.720 C 390.768 22.425,390.314 21.787,390.055 21.303 C 389.577 20.409,385.791 16.223,384.045 14.657 C 383.519 14.186,382.232 12.974,381.185 11.965 C 380.138 10.956,378.722 9.899,378.040 9.617 C 377.358 9.334,376.800 8.945,376.800 8.751 C 376.800 8.558,376.480 8.400,376.088 8.400 C 375.697 8.400,375.117 8.040,374.800 7.600 C 374.483 7.160,373.993 6.800,373.712 6.800 C 373.430 6.800,373.200 6.620,373.200 6.400 C 373.200 6.180,372.840 6.000,372.400 6.000 C 371.960 6.000,371.600 5.820,371.600 5.600 C 371.600 5.380,371.240 5.200,370.800 5.200 C 370.360 5.200,370.000 5.020,370.000 4.800 C 370.000 4.580,369.640 4.400,369.200 4.400 C 368.760 4.400,368.400 4.220,368.400 4.000 C 368.400 3.780,367.961 3.600,367.424 3.600 C 366.887 3.600,366.336 3.420,366.200 3.200 C 366.064 2.980,365.603 2.800,365.176 2.800 C 364.749 2.800,364.400 2.620,364.400 2.400 C 364.400 2.180,363.860 2.000,363.200 2.000 C 362.540 2.000,362.000 1.820,362.000 1.600 C 362.000 1.380,361.295 1.200,360.433 1.200 C 359.536 1.200,358.796 0.987,358.700 0.700 C 358.544 0.230,48.871 -0.170,43.100 0.292 M116.600 75.200 C 116.736 75.420,117.456 75.600,118.200 75.600 C 118.944 75.600,119.664 75.780,119.800 76.000 C 119.936 76.220,120.399 76.400,120.829 76.400 C 121.259 76.400,121.923 76.560,122.305 76.756 C 122.687 76.952,123.900 77.529,125.000 78.039 C 130.453 80.564,136.266 85.721,139.160 90.600 C 141.151 93.958,141.600 94.843,141.600 95.412 C 141.600 95.735,141.780 96.000,142.000 96.000 C 142.220 96.000,142.400 96.439,142.400 96.976 C 142.400 97.513,142.580 98.064,142.800 98.200 C 143.020 98.336,143.200 98.941,143.200 99.544 C 143.200 100.147,143.363 100.811,143.563 101.020 C 144.488 101.987,144.797 110.751,144.050 114.800 C 143.786 116.230,143.467 117.985,143.341 118.700 C 143.215 119.415,142.952 120.000,142.756 120.000 C 142.560 120.000,142.400 120.344,142.400 120.766 C 142.400 122.398,138.936 128.416,135.831 132.175 C 133.197 135.366,125.317 140.800,123.325 140.800 C 123.036 140.800,122.800 140.980,122.800 141.200 C 122.800 141.420,122.361 141.600,121.824 141.600 C 121.287 141.600,120.736 141.780,120.600 142.000 C 120.464 142.220,119.834 142.400,119.200 142.400 C 118.566 142.400,117.951 142.556,117.833 142.747 C 117.644 143.052,113.178 143.614,110.400 143.682 C 108.318 143.733,102.764 143.065,102.563 142.740 C 102.447 142.553,101.744 142.400,101.000 142.400 C 100.256 142.400,99.536 142.220,99.400 142.000 C 99.264 141.780,98.848 141.598,98.476 141.595 C 97.638 141.589,92.115 138.793,89.815 137.211 C 85.790 134.441,80.838 128.395,78.796 123.756 C 78.322 122.680,77.769 121.487,77.567 121.105 C 77.365 120.723,77.200 120.059,77.200 119.629 C 77.200 119.199,77.020 118.736,76.800 118.600 C 76.580 118.464,76.400 117.654,76.400 116.800 C 76.400 115.946,76.220 115.136,76.000 115.000 C 75.763 114.854,75.600 112.404,75.600 109.000 C 75.600 105.596,75.763 103.146,76.000 103.000 C 76.220 102.864,76.400 102.144,76.400 101.400 C 76.400 100.656,76.580 99.936,76.800 99.800 C 77.020 99.664,77.200 99.201,77.200 98.772 C 77.200 98.343,77.578 97.138,78.040 96.096 C 78.502 95.053,79.079 93.750,79.322 93.200 C 81.681 87.865,88.779 80.935,94.685 78.202 C 95.958 77.613,97.313 76.966,97.695 76.765 C 98.077 76.564,98.741 76.400,99.171 76.400 C 99.601 76.400,100.064 76.220,100.200 76.000 C 100.336 75.780,101.056 75.600,101.800 75.600 C 102.544 75.600,103.264 75.420,103.400 75.200 C 103.548 74.961,106.196 74.800,110.000 74.800 C 113.804 74.800,116.452 74.961,116.600 75.200 M273.600 155.158 C 275.250 155.386,277.410 155.687,278.400 155.827 C 279.390 155.967,280.371 156.244,280.580 156.441 C 280.789 156.638,281.543 156.800,282.256 156.800 C 282.969 156.800,283.664 156.980,283.800 157.200 C 283.936 157.420,284.476 157.600,285.000 157.600 C 285.524 157.600,286.064 157.780,286.200 158.000 C 286.336 158.220,286.887 158.400,287.424 158.400 C 287.961 158.400,288.400 158.580,288.400 158.800 C 288.400 159.020,288.850 159.200,289.400 159.200 C 289.950 159.200,290.400 159.380,290.400 159.600 C 290.400 159.820,290.652 160.000,290.959 160.000 C 294.521 160.000,308.141 171.079,310.768 176.112 C 311.080 176.711,311.485 177.200,311.668 177.200 C 311.850 177.200,312.000 177.393,312.000 177.628 C 312.000 177.863,312.503 178.808,313.117 179.728 C 314.148 181.269,316.494 185.913,317.195 187.800 C 317.359 188.240,317.689 189.050,317.930 189.600 C 318.862 191.735,320.498 197.139,321.077 200.000 C 321.411 201.650,321.847 203.720,322.047 204.600 C 322.417 206.237,322.957 210.212,323.676 216.600 C 324.328 222.398,324.549 319.544,323.912 320.800 C 323.312 321.985,321.344 323.997,320.097 324.700 C 318.629 325.528,275.749 325.413,274.072 324.576 C 272.422 323.753,270.164 321.077,269.768 319.477 C 269.595 318.775,269.409 298.310,269.355 274.000 C 269.249 225.416,269.322 226.950,266.707 218.400 C 264.130 209.973,257.964 203.772,250.268 201.868 C 245.467 200.680,235.152 201.448,231.123 203.292 C 227.404 204.995,224.680 207.207,221.872 210.805 C 219.944 213.276,216.800 219.339,216.800 220.586 C 216.800 220.898,216.641 221.251,216.446 221.371 C 216.251 221.492,215.993 222.087,215.871 222.695 C 215.749 223.303,215.447 224.610,215.200 225.600 C 214.952 226.590,214.551 228.300,214.307 229.400 C 214.003 230.774,213.824 244.980,213.736 274.800 C 213.653 302.891,213.466 318.517,213.204 319.100 C 211.710 322.428,211.440 322.790,209.438 324.149 L 207.888 325.200 186.539 325.200 C 170.189 325.200,164.986 325.083,164.320 324.700 C 163.202 324.057,161.143 321.998,160.500 320.880 C 160.105 320.193,160.000 303.535,160.000 241.285 L 160.000 162.560 161.054 160.934 C 162.154 159.238,163.632 158.155,166.000 157.311 C 167.665 156.717,205.960 156.570,207.105 157.153 C 207.487 157.348,208.340 157.752,209.000 158.051 C 210.525 158.744,212.800 161.141,212.800 162.055 C 212.800 162.439,212.980 162.864,213.200 163.000 C 213.441 163.149,213.600 165.889,213.600 169.877 L 213.600 176.508 215.282 174.354 C 220.652 167.475,228.609 161.558,236.200 158.798 C 236.640 158.638,237.450 158.323,238.000 158.099 C 238.550 157.875,239.720 157.506,240.600 157.279 C 241.480 157.052,242.920 156.679,243.800 156.449 C 246.018 155.872,247.669 155.610,251.522 155.223 C 253.349 155.039,254.965 154.769,255.112 154.622 C 255.492 154.241,270.011 154.662,273.600 155.158 M129.800 157.200 C 129.936 157.420,130.487 157.600,131.024 157.600 C 131.561 157.600,132.000 157.780,132.000 158.000 C 132.000 158.220,132.182 158.400,132.403 158.400 C 133.190 158.400,135.321 160.623,136.046 162.200 C 137.212 164.735,137.193 317.696,136.026 320.266 C 135.235 322.009,133.589 323.706,131.778 324.645 C 130.288 325.418,89.672 325.470,88.295 324.700 C 86.650 323.782,84.346 321.414,83.770 320.051 C 82.848 317.869,82.921 164.114,83.845 162.280 C 84.651 160.679,86.785 158.400,87.478 158.400 C 87.765 158.400,88.000 158.220,88.000 158.000 C 88.000 157.780,88.439 157.600,88.976 157.600 C 89.513 157.600,90.064 157.420,90.200 157.200 C 90.359 156.942,97.396 156.800,110.000 156.800 C 122.604 156.800,129.641 156.942,129.800 157.200 " stroke="none" fill="#0474b4" fill-rule="evenodd"></path><path id="path2" d="M108.500 75.087 C 109.105 75.178,110.095 75.178,110.700 75.087 C 111.305 74.995,110.810 74.920,109.600 74.920 C 108.390 74.920,107.895 74.995,108.500 75.087 M103.600 75.600 C 102.243 75.886,102.237 75.895,103.400 75.907 C 104.060 75.915,105.050 75.776,105.600 75.600 C 106.912 75.180,105.596 75.180,103.600 75.600 M114.400 75.580 C 115.399 75.920,117.882 76.132,117.567 75.851 C 117.475 75.769,116.500 75.599,115.400 75.472 C 114.051 75.316,113.726 75.351,114.400 75.580 M100.400 76.400 C 99.576 76.664,99.541 76.726,100.200 76.754 C 100.640 76.773,101.270 76.613,101.600 76.400 C 102.301 75.947,101.814 75.947,100.400 76.400 M118.400 76.382 C 118.730 76.605,119.345 76.791,119.767 76.794 C 120.790 76.802,120.471 76.573,119.000 76.244 C 118.124 76.048,117.962 76.085,118.400 76.382 M97.000 77.578 C 96.120 77.995,95.580 78.336,95.800 78.338 C 96.346 78.342,99.502 76.864,99.000 76.840 C 98.780 76.830,97.880 77.162,97.000 77.578 M122.358 77.637 C 123.325 78.066,124.188 78.345,124.275 78.258 C 124.448 78.086,121.365 76.782,120.892 76.828 C 120.731 76.844,121.391 77.208,122.358 77.637 M90.563 81.144 C 86.660 83.891,80.468 90.613,80.413 92.163 C 80.406 92.362,81.277 91.282,82.348 89.763 C 84.639 86.513,88.085 83.145,91.300 81.012 C 93.360 79.646,93.892 79.200,93.463 79.200 C 93.387 79.200,92.082 80.075,90.563 81.144 M127.000 79.807 C 127.440 80.166,128.160 80.635,128.600 80.851 L 129.400 81.244 128.600 80.593 C 128.160 80.234,127.440 79.765,127.000 79.549 L 126.200 79.156 127.000 79.807 M132.350 83.808 C 133.972 85.326,136.177 87.727,137.250 89.143 C 138.322 90.560,139.200 91.583,139.200 91.417 C 139.200 90.509,132.856 83.484,130.600 81.894 C 129.940 81.429,130.727 82.290,132.350 83.808 M79.614 93.573 C 78.984 94.751,78.313 96.620,78.637 96.296 C 79.020 95.914,80.407 92.800,80.195 92.800 C 80.103 92.800,79.842 93.148,79.614 93.573 M140.606 94.700 C 140.767 95.085,141.263 96.438,141.709 97.707 C 142.154 98.976,142.611 99.922,142.724 99.810 C 142.956 99.578,140.842 94.000,140.522 94.000 C 140.408 94.000,140.446 94.315,140.606 94.700 M77.677 98.138 C 77.415 98.864,77.209 99.714,77.219 100.028 C 77.230 100.343,77.512 99.818,77.847 98.861 C 78.182 97.905,78.388 97.055,78.305 96.971 C 78.222 96.888,77.939 97.413,77.677 98.138 M142.868 101.000 C 142.862 101.440,143.011 102.160,143.200 102.600 C 143.638 103.619,143.638 102.568,143.200 101.200 C 142.943 100.396,142.877 100.357,142.868 101.000 M76.229 104.429 C 76.076 105.779,76.033 106.966,76.133 107.067 C 76.234 107.167,76.444 106.147,76.600 104.800 C 76.756 103.453,76.799 102.266,76.695 102.162 C 76.591 102.058,76.381 103.078,76.229 104.429 M143.751 109.200 C 143.751 111.730,143.816 112.765,143.896 111.500 C 143.975 110.235,143.975 108.165,143.896 106.900 C 143.816 105.635,143.751 106.670,143.751 109.200 M76.070 112.000 C 76.057 112.550,76.195 113.720,76.377 114.600 L 76.708 116.200 76.707 114.800 C 76.705 113.035,76.109 110.412,76.070 112.000 M143.049 115.815 C 142.912 116.173,142.816 116.856,142.836 117.333 C 142.862 117.947,142.985 117.808,143.259 116.856 C 143.657 115.472,143.494 114.658,143.049 115.815 M77.044 117.800 C 77.373 119.271,77.602 119.590,77.594 118.567 C 77.591 118.145,77.405 117.530,77.182 117.200 C 76.885 116.762,76.848 116.924,77.044 117.800 M77.628 119.692 C 77.582 120.165,78.886 123.248,79.058 123.075 C 79.145 122.988,78.866 122.125,78.437 121.158 C 78.008 120.191,77.644 119.531,77.628 119.692 M140.621 123.322 C 137.742 129.487,128.971 138.800,126.046 138.800 C 125.826 138.800,125.537 138.978,125.403 139.195 C 124.357 140.887,130.884 136.371,134.027 133.227 C 137.431 129.824,142.662 121.729,141.931 120.997 C 141.847 120.913,141.257 121.959,140.621 123.322 M79.459 124.300 C 79.560 124.685,80.000 125.450,80.436 126.000 C 81.168 126.922,81.163 126.867,80.375 125.300 C 79.465 123.492,79.159 123.158,79.459 124.300 M81.200 127.357 C 81.200 128.358,86.418 134.041,89.390 136.277 C 91.713 138.026,94.800 139.818,94.800 139.418 C 94.800 139.310,94.215 138.925,93.500 138.564 C 90.639 137.119,86.273 133.427,83.946 130.485 C 81.044 126.817,81.200 126.994,81.200 127.357 M95.254 139.787 C 95.590 140.123,98.400 141.216,98.400 141.011 C 98.400 140.901,97.748 140.538,96.951 140.205 C 95.475 139.589,94.918 139.451,95.254 139.787 M98.833 141.344 C 98.925 141.423,99.540 141.608,100.200 141.756 C 101.076 141.952,101.238 141.915,100.800 141.618 C 100.260 141.253,98.432 140.998,98.833 141.344 M119.200 141.618 C 118.762 141.915,118.924 141.952,119.800 141.756 C 121.271 141.427,121.590 141.198,120.567 141.206 C 120.145 141.209,119.530 141.395,119.200 141.618 M101.633 142.147 C 101.725 142.228,102.520 142.404,103.400 142.538 C 104.515 142.707,104.758 142.671,104.200 142.419 C 103.432 142.071,101.290 141.844,101.633 142.147 M115.800 142.419 C 115.242 142.671,115.485 142.707,116.600 142.538 C 117.480 142.404,118.275 142.228,118.367 142.147 C 118.710 141.844,116.568 142.071,115.800 142.419 M107.700 143.096 C 108.965 143.175,111.035 143.175,112.300 143.096 C 113.565 143.016,112.530 142.951,110.000 142.951 C 107.470 142.951,106.435 143.016,107.700 143.096 M255.800 155.172 C 254.480 155.303,257.450 155.413,262.400 155.416 C 267.642 155.420,270.314 155.312,268.800 155.158 C 265.661 154.839,259.094 154.846,255.800 155.172 M248.600 156.000 L 247.400 156.305 248.600 156.313 C 249.260 156.317,250.250 156.176,250.800 156.000 L 251.800 155.680 250.800 155.687 C 250.250 155.691,249.260 155.832,248.600 156.000 M274.000 156.000 C 274.550 156.176,275.540 156.317,276.200 156.313 L 277.400 156.305 276.200 156.000 C 275.540 155.832,274.550 155.691,274.000 155.687 L 273.000 155.680 274.000 156.000 M244.200 156.800 L 243.400 157.144 244.200 157.144 C 244.640 157.144,245.360 156.989,245.800 156.800 L 246.600 156.456 245.800 156.456 C 245.360 156.456,244.640 156.611,244.200 156.800 M279.000 156.800 C 279.440 156.989,280.160 157.138,280.600 157.132 C 281.243 157.123,281.204 157.057,280.400 156.800 C 279.032 156.362,277.981 156.362,279.000 156.800 M241.000 157.600 L 240.200 157.944 241.000 157.966 C 241.440 157.978,242.070 157.813,242.400 157.600 C 243.195 157.086,242.196 157.086,241.000 157.600 M99.700 157.900 C 105.365 157.962,114.635 157.962,120.300 157.900 C 125.965 157.837,121.330 157.786,110.000 157.786 C 98.670 157.786,94.035 157.837,99.700 157.900 M175.900 157.900 C 181.675 157.962,191.125 157.962,196.900 157.900 C 202.675 157.837,197.950 157.786,186.400 157.786 C 174.850 157.786,170.125 157.837,175.900 157.900 M87.284 158.938 C 85.943 159.928,84.400 161.702,84.400 162.254 C 84.400 162.435,84.971 161.890,85.668 161.044 C 86.366 160.198,87.491 159.167,88.168 158.754 C 88.846 158.341,89.210 158.002,88.978 158.001 C 88.745 158.001,87.983 158.422,87.284 158.938 M131.003 158.405 C 131.137 158.622,131.471 158.800,131.745 158.800 C 132.494 158.800,134.677 161.213,135.363 162.800 C 135.696 163.570,135.976 163.966,135.984 163.680 C 136.011 162.791,134.926 161.054,133.534 159.758 C 132.215 158.530,130.520 157.624,131.003 158.405 M237.494 158.685 C 236.445 159.035,235.660 159.394,235.750 159.483 C 235.932 159.665,240.000 158.394,240.000 158.154 C 240.000 157.907,239.521 158.009,237.494 158.685 M162.196 160.077 C 161.101 161.379,160.237 163.170,160.552 163.486 C 160.648 163.582,160.852 163.242,161.004 162.730 C 161.156 162.219,161.811 161.125,162.459 160.300 C 163.895 158.473,163.691 158.301,162.196 160.077 M231.393 161.393 C 226.432 163.988,216.548 171.882,217.309 172.642 C 217.374 172.707,218.990 171.256,220.900 169.417 C 224.856 165.611,226.791 164.214,231.600 161.696 C 233.470 160.717,235.075 159.845,235.167 159.758 C 235.695 159.257,234.419 159.809,231.393 161.393 M291.200 160.583 C 291.200 160.763,293.602 162.000,293.950 162.000 C 294.297 162.000,292.694 160.967,291.900 160.679 C 291.515 160.539,291.200 160.496,291.200 160.583 M295.000 162.607 C 295.440 162.966,296.160 163.435,296.600 163.651 L 297.400 164.044 296.600 163.393 C 296.160 163.034,295.440 162.565,295.000 162.349 L 294.200 161.956 295.000 162.607 M83.849 163.415 C 83.712 163.773,83.618 164.456,83.641 164.933 C 83.667 165.481,83.803 165.286,84.010 164.403 C 84.360 162.916,84.265 162.333,83.849 163.415 M212.601 164.200 C 212.706 165.080,212.793 168.539,212.796 171.887 C 212.801 178.876,212.874 178.964,215.636 175.306 C 216.559 174.083,217.116 173.205,216.872 173.356 C 216.628 173.506,215.852 174.433,215.146 175.415 C 213.285 178.007,213.204 177.822,213.160 170.900 C 213.138 167.435,212.961 164.150,212.766 163.600 C 212.485 162.807,212.451 162.931,212.601 164.200 M297.800 164.277 C 298.020 164.493,299.280 165.489,300.600 166.488 C 301.920 167.488,304.140 169.497,305.533 170.953 C 306.927 172.409,308.182 173.600,308.323 173.600 C 308.806 173.600,302.604 167.525,300.600 166.035 C 298.469 164.450,297.110 163.597,297.800 164.277 M136.196 241.200 C 136.196 283.550,136.243 300.875,136.300 279.700 C 136.357 258.525,136.357 223.875,136.300 202.700 C 136.243 181.525,136.196 198.850,136.196 241.200 M160.196 241.200 C 160.196 283.550,160.243 300.875,160.300 279.700 C 160.357 258.525,160.357 223.875,160.300 202.700 C 160.243 181.525,160.196 198.850,160.196 241.200 M309.296 175.395 C 309.793 176.162,310.344 176.792,310.520 176.795 C 310.697 176.798,310.360 176.170,309.773 175.400 C 308.400 173.600,308.132 173.597,309.296 175.395 M314.282 183.389 C 314.873 184.593,315.423 185.511,315.505 185.429 C 315.684 185.249,313.667 181.200,313.398 181.200 C 313.294 181.200,313.692 182.185,314.282 183.389 M319.044 195.400 C 319.373 196.871,319.602 197.190,319.594 196.167 C 319.591 195.745,319.405 195.130,319.182 194.800 C 318.885 194.362,318.848 194.524,319.044 195.400 M319.844 198.200 C 320.173 199.671,320.402 199.990,320.394 198.967 C 320.391 198.545,320.205 197.930,319.982 197.600 C 319.685 197.162,319.648 197.324,319.844 198.200 M238.600 200.356 C 237.940 200.499,239.740 200.621,242.600 200.627 C 245.991 200.634,247.243 200.534,246.200 200.342 C 244.279 199.987,240.262 199.994,238.600 200.356 M234.600 201.200 C 234.096 201.417,234.022 201.544,234.400 201.544 C 234.730 201.544,235.360 201.389,235.800 201.200 C 236.304 200.983,236.378 200.856,236.000 200.856 C 235.670 200.856,235.040 201.011,234.600 201.200 M249.400 201.200 C 250.596 201.714,251.595 201.714,250.800 201.200 C 250.470 200.987,249.840 200.822,249.400 200.834 L 248.600 200.856 249.400 201.200 M254.191 202.754 C 255.506 203.413,256.649 203.885,256.730 203.804 C 256.924 203.609,254.075 202.178,252.800 201.830 C 252.250 201.680,252.876 202.096,254.191 202.754 M227.395 204.561 C 225.484 205.865,220.743 210.400,221.291 210.400 C 221.436 210.400,222.486 209.415,223.625 208.211 C 224.763 207.008,226.573 205.459,227.647 204.770 C 229.333 203.688,229.907 203.200,229.495 203.200 C 229.437 203.200,228.492 203.813,227.395 204.561 M257.200 204.056 C 257.310 204.152,258.750 205.482,260.400 207.012 C 262.050 208.542,262.860 209.180,262.200 208.431 C 260.728 206.758,258.516 204.724,257.647 204.241 C 257.291 204.044,257.090 203.961,257.200 204.056 M321.482 205.800 C 321.609 206.900,321.777 207.875,321.856 207.967 C 322.155 208.314,321.928 205.364,321.597 204.600 C 321.374 204.085,321.333 204.513,321.482 205.800 M322.299 211.000 C 322.416 212.540,322.577 213.875,322.656 213.967 C 322.934 214.288,322.717 210.189,322.403 209.200 C 322.219 208.619,322.175 209.373,322.299 211.000 M264.257 211.791 C 264.813 212.786,265.347 213.600,265.442 213.600 C 265.723 213.600,264.048 210.477,263.629 210.218 C 263.418 210.088,263.701 210.795,264.257 211.791 M218.600 214.400 C 218.259 215.060,218.069 215.600,218.179 215.600 C 218.289 215.600,218.659 215.060,219.000 214.400 C 219.341 213.740,219.531 213.200,219.421 213.200 C 219.311 213.200,218.941 213.740,218.600 214.400 M322.893 215.600 C 322.893 216.370,322.975 216.685,323.076 216.300 C 323.176 215.915,323.176 215.285,323.076 214.900 C 322.975 214.515,322.893 214.830,322.893 215.600 M323.307 219.800 C 323.295 221.340,323.417 224.220,323.579 226.200 C 323.848 229.485,323.875 229.573,323.892 227.200 C 323.902 225.770,323.780 222.890,323.620 220.800 C 323.346 217.214,323.328 217.158,323.307 219.800 M268.034 221.000 C 268.022 221.440,268.187 222.070,268.400 222.400 C 268.914 223.195,268.914 222.196,268.400 221.000 L 268.056 220.200 268.034 221.000 M215.000 222.800 C 214.850 223.273,214.817 223.750,214.927 223.860 C 215.037 223.970,215.250 223.673,215.400 223.200 C 215.550 222.727,215.583 222.250,215.473 222.140 C 215.363 222.030,215.150 222.327,215.000 222.800 M268.880 224.800 C 268.880 225.350,269.024 226.250,269.200 226.800 L 269.520 227.800 269.520 226.800 C 269.520 226.250,269.376 225.350,269.200 224.800 L 268.880 223.800 268.880 224.800 M214.200 226.000 C 214.048 226.691,214.007 227.341,214.109 227.442 C 214.211 227.544,214.409 227.053,214.550 226.350 C 214.691 225.647,214.731 224.998,214.641 224.908 C 214.550 224.817,214.352 225.309,214.200 226.000 M213.456 229.284 C 213.321 229.788,213.227 230.560,213.246 231.000 C 213.265 231.440,213.445 231.098,213.646 230.240 C 214.036 228.578,213.870 227.740,213.456 229.284 M269.903 269.038 C 269.959 290.797,270.055 310.940,270.116 313.800 C 270.176 316.660,270.254 299.560,270.290 275.800 C 270.325 252.040,270.229 231.897,270.077 231.038 C 269.925 230.180,269.846 247.280,269.903 269.038 M324.193 274.800 C 324.193 298.890,324.241 308.745,324.300 296.700 C 324.359 284.655,324.359 264.945,324.300 252.900 C 324.241 240.855,324.193 250.710,324.193 274.800 M212.653 234.836 C 212.514 235.531,212.442 254.843,212.493 277.750 L 212.586 319.400 212.793 276.600 C 212.907 253.060,212.979 233.749,212.953 233.686 C 212.927 233.623,212.792 234.141,212.653 234.836 M83.606 317.833 C 83.609 318.255,83.795 318.870,84.018 319.200 C 84.315 319.638,84.352 319.476,84.156 318.600 C 83.827 317.129,83.598 316.810,83.606 317.833 M160.416 319.126 C 160.360 320.997,164.185 324.823,166.080 324.791 C 166.366 324.786,165.880 324.450,165.000 324.044 C 163.100 323.167,161.865 321.906,161.037 319.997 C 160.704 319.229,160.424 318.837,160.416 319.126 M323.267 319.980 C 323.033 320.651,322.927 321.200,323.031 321.200 C 323.301 321.200,324.056 319.122,323.857 318.924 C 323.767 318.833,323.501 319.308,323.267 319.980 M270.401 319.753 C 270.399 320.421,272.066 322.800,272.533 322.794 C 272.873 322.789,272.878 322.708,272.550 322.494 C 272.303 322.332,271.719 321.570,271.252 320.800 C 270.785 320.030,270.402 319.559,270.401 319.753 M84.402 320.233 C 84.403 320.435,84.868 321.140,85.435 321.800 L 86.466 323.000 85.563 321.600 C 84.404 319.804,84.400 319.799,84.402 320.233 M133.486 322.435 C 132.653 323.320,132.325 323.854,132.758 323.623 C 133.415 323.271,135.524 320.771,135.127 320.814 C 135.057 320.821,134.318 321.551,133.486 322.435 M210.589 322.387 C 210.155 322.820,209.080 323.547,208.200 324.001 C 207.303 324.465,207.040 324.711,207.600 324.562 C 208.715 324.264,210.402 323.162,211.185 322.219 C 211.912 321.342,211.527 321.451,210.589 322.387 M321.611 322.588 C 321.100 323.132,320.067 323.780,319.314 324.028 C 318.562 324.277,318.029 324.562,318.130 324.663 C 318.483 325.017,321.009 323.693,321.970 322.652 C 322.503 322.073,322.849 321.600,322.739 321.600 C 322.629 321.600,322.122 322.045,321.611 322.588 M273.411 323.746 C 273.845 324.046,274.650 324.413,275.200 324.560 C 275.775 324.715,275.532 324.482,274.629 324.014 C 272.818 323.076,272.268 322.955,273.411 323.746 M100.500 325.100 C 105.725 325.163,114.275 325.163,119.500 325.100 C 124.725 325.036,120.450 324.985,110.000 324.985 C 99.550 324.985,95.275 325.036,100.500 325.100 M176.672 325.100 C 181.992 325.163,190.812 325.163,196.272 325.100 C 201.733 325.037,197.380 324.985,186.600 324.985 C 175.820 324.985,171.353 325.037,176.672 325.100 M286.928 325.100 C 292.608 325.162,301.788 325.162,307.328 325.100 C 312.868 325.037,308.220 324.986,297.000 324.986 C 285.780 324.986,281.248 325.037,286.928 325.100 " stroke="none" fill="#7cbcdc" fill-rule="evenodd"></path><path id="path3" d="M112.305 75.083 C 112.802 75.179,113.522 75.175,113.905 75.075 C 114.287 74.975,113.880 74.896,113.000 74.901 C 112.120 74.905,111.807 74.987,112.305 75.083 M133.800 84.800 C 134.883 85.900,135.860 86.800,135.970 86.800 C 136.080 86.800,135.283 85.900,134.200 84.800 C 133.117 83.700,132.140 82.800,132.030 82.800 C 131.920 82.800,132.717 83.700,133.800 84.800 M84.575 86.100 L 83.400 87.400 84.700 86.225 C 85.912 85.130,86.184 84.800,85.875 84.800 C 85.806 84.800,85.221 85.385,84.575 86.100 M75.742 109.000 C 75.741 110.980,75.808 111.840,75.892 110.912 C 75.976 109.984,75.977 108.364,75.895 107.312 C 75.812 106.260,75.743 107.020,75.742 109.000 M144.124 109.400 C 144.126 110.720,144.201 111.212,144.290 110.493 C 144.379 109.774,144.377 108.694,144.286 108.093 C 144.195 107.492,144.122 108.080,144.124 109.400 M267.300 155.076 C 267.685 155.176,268.315 155.176,268.700 155.076 C 269.085 154.975,268.770 154.893,268.000 154.893 C 267.230 154.893,266.915 154.975,267.300 155.076 M251.700 155.476 C 252.085 155.576,252.715 155.576,253.100 155.476 C 253.485 155.375,253.170 155.293,252.400 155.293 C 251.630 155.293,251.315 155.375,251.700 155.476 M271.700 155.476 C 272.085 155.576,272.715 155.576,273.100 155.476 C 273.485 155.375,273.170 155.293,272.400 155.293 C 271.630 155.293,271.315 155.375,271.700 155.476 M100.300 157.500 C 105.635 157.563,114.365 157.563,119.700 157.500 C 125.035 157.437,120.670 157.385,110.000 157.385 C 99.330 157.385,94.965 157.437,100.300 157.500 M176.500 157.500 C 181.945 157.563,190.855 157.563,196.300 157.500 C 201.745 157.437,197.290 157.385,186.400 157.385 C 175.510 157.385,171.055 157.437,176.500 157.500 M133.600 159.800 C 134.346 160.570,135.047 161.200,135.157 161.200 C 135.267 161.200,134.746 160.570,134.000 159.800 C 133.254 159.030,132.553 158.400,132.443 158.400 C 132.333 158.400,132.854 159.030,133.600 159.800 M136.596 241.400 C 136.596 283.420,136.643 300.669,136.700 279.732 C 136.757 258.794,136.757 224.414,136.700 203.332 C 136.643 182.249,136.596 199.380,136.596 241.400 M83.396 241.200 C 83.396 282.450,83.443 299.325,83.500 278.700 C 83.557 258.075,83.557 224.325,83.500 203.700 C 83.443 183.075,83.396 199.950,83.396 241.200 M219.785 169.700 L 217.800 171.800 219.900 169.815 C 221.055 168.723,222.000 167.778,222.000 167.715 C 222.000 167.417,221.629 167.749,219.785 169.700 M304.800 169.800 C 305.995 171.010,307.063 172.000,307.173 172.000 C 307.283 172.000,306.395 171.010,305.200 169.800 C 304.005 168.590,302.937 167.600,302.827 167.600 C 302.717 167.600,303.605 168.590,304.800 169.800 M241.300 200.687 C 241.905 200.778,242.895 200.778,243.500 200.687 C 244.105 200.595,243.610 200.520,242.400 200.520 C 241.190 200.520,240.695 200.595,241.300 200.687 M324.134 228.400 C 324.134 230.050,324.205 230.725,324.291 229.900 C 324.378 229.075,324.378 227.725,324.291 226.900 C 324.205 226.075,324.134 226.750,324.134 228.400 M213.293 232.800 C 213.293 233.570,213.375 233.885,213.476 233.500 C 213.576 233.115,213.576 232.485,213.476 232.100 C 213.375 231.715,213.293 232.030,213.293 232.800 M269.731 235.400 C 269.733 236.940,269.805 237.521,269.892 236.691 C 269.979 235.861,269.977 234.601,269.889 233.891 C 269.800 233.181,269.729 233.860,269.731 235.400 M212.993 277.200 C 212.993 299.970,213.041 309.285,213.100 297.900 C 213.159 286.515,213.159 267.885,213.100 256.500 C 213.041 245.115,212.993 254.430,212.993 277.200 M269.792 281.000 C 269.792 301.240,269.840 309.579,269.900 299.530 C 269.959 289.482,269.959 272.922,269.900 262.730 C 269.840 252.539,269.792 260.760,269.792 281.000 " stroke="none" fill="#62aad3" fill-rule="evenodd"></path><path id="path4" d="M103.390 75.216 C 103.221 75.489,103.523 75.538,104.266 75.360 C 105.799 74.992,105.944 74.800,104.690 74.800 C 104.117 74.800,103.532 74.987,103.390 75.216 M114.433 74.944 C 114.905 75.350,116.843 75.593,116.610 75.216 C 116.468 74.987,115.883 74.800,115.310 74.800 C 114.736 74.800,114.342 74.865,114.433 74.944 M132.355 83.031 C 133.336 83.928,134.939 85.548,135.917 86.631 C 137.316 88.180,137.437 88.259,136.482 87.000 C 135.271 85.404,132.928 83.099,131.386 81.987 C 130.939 81.664,131.375 82.134,132.355 83.031 M85.361 84.900 C 84.254 86.055,82.855 87.720,82.253 88.600 L 81.157 90.200 82.278 88.828 C 82.895 88.074,84.372 86.409,85.561 85.128 C 86.749 83.848,87.643 82.800,87.547 82.800 C 87.451 82.800,86.467 83.745,85.361 84.900 M138.237 89.800 C 138.597 90.350,138.957 90.800,139.037 90.800 C 139.117 90.800,138.978 90.350,138.727 89.800 C 138.477 89.250,138.116 88.800,137.927 88.800 C 137.737 88.800,137.876 89.250,138.237 89.800 M80.222 91.422 C 79.845 91.998,79.616 92.549,79.714 92.647 C 79.812 92.745,80.200 92.354,80.578 91.778 C 80.955 91.202,81.184 90.651,81.086 90.553 C 80.988 90.455,80.600 90.846,80.222 91.422 M143.228 101.076 C 143.318 102.115,143.944 102.996,143.972 102.124 C 143.987 101.642,143.820 101.136,143.600 101.000 C 143.380 100.864,143.213 100.898,143.228 101.076 M75.867 103.067 C 75.720 103.213,75.616 103.888,75.636 104.567 L 75.672 105.800 76.059 104.456 C 76.445 103.113,76.369 102.564,75.867 103.067 M144.191 109.208 C 144.196 111.386,144.322 112.860,144.472 112.484 C 144.847 111.541,144.857 106.309,144.485 105.724 C 144.319 105.462,144.186 107.030,144.191 109.208 M75.600 113.510 C 75.600 114.193,75.777 114.862,75.994 114.996 C 76.240 115.148,76.294 114.745,76.137 113.920 C 75.800 112.151,75.600 111.999,75.600 113.510 M143.646 115.667 C 143.621 116.034,143.496 116.664,143.370 117.067 C 143.152 117.762,143.163 117.763,143.597 117.087 C 143.848 116.696,143.973 116.066,143.873 115.687 C 143.711 115.068,143.688 115.066,143.646 115.667 M135.187 132.300 C 133.984 133.565,132.190 135.288,131.200 136.128 C 129.735 137.372,129.855 137.319,131.850 135.843 C 133.849 134.364,138.087 130.000,137.524 130.000 C 137.442 130.000,136.390 131.035,135.187 132.300 M83.800 131.587 C 85.489 133.536,87.988 135.900,89.400 136.886 C 90.757 137.834,90.675 137.750,86.000 133.380 C 84.130 131.632,83.140 130.825,83.800 131.587 M116.600 142.800 C 115.829 143.131,115.831 143.145,116.676 143.172 C 117.158 143.187,117.664 143.020,117.800 142.800 C 118.092 142.327,117.701 142.327,116.600 142.800 M108.775 143.636 C 109.796 143.836,111.070 143.833,111.775 143.628 C 112.753 143.344,112.395 143.274,110.000 143.280 C 107.195 143.287,107.115 143.310,108.775 143.636 M254.475 154.740 C 253.966 154.883,257.514 155.000,262.359 155.000 C 267.204 155.000,270.860 154.878,270.484 154.728 C 269.614 154.382,255.710 154.393,254.475 154.740 M248.000 155.612 C 247.581 155.891,247.942 155.933,249.200 155.750 C 251.441 155.425,251.760 155.198,249.967 155.206 C 249.215 155.209,248.330 155.392,248.000 155.612 M273.633 155.344 C 273.725 155.424,274.610 155.606,275.600 155.750 C 276.858 155.933,277.219 155.891,276.800 155.612 C 276.260 155.253,273.232 154.997,273.633 155.344 M244.000 156.406 C 243.578 156.682,243.815 156.723,244.800 156.542 C 246.525 156.225,246.851 155.998,245.567 156.006 C 245.035 156.009,244.330 156.189,244.000 156.406 M278.433 156.144 C 278.905 156.550,280.843 156.793,280.610 156.416 C 280.468 156.187,279.883 156.000,279.310 156.000 C 278.736 156.000,278.342 156.065,278.433 156.144 M90.262 157.100 C 90.160 157.265,99.042 157.400,110.000 157.400 C 120.958 157.400,129.840 157.265,129.738 157.100 C 129.636 156.935,120.754 156.800,110.000 156.800 C 99.246 156.800,90.364 156.935,90.262 157.100 M166.538 157.106 C 166.284 157.268,175.312 157.400,186.600 157.400 C 197.888 157.400,207.040 157.265,206.938 157.100 C 206.698 156.712,167.148 156.718,166.538 157.106 M85.723 159.700 C 84.012 161.504,83.191 163.292,83.253 165.080 L 83.307 166.600 83.572 164.800 C 83.891 162.630,84.496 161.423,86.126 159.700 C 86.803 158.985,87.267 158.400,87.157 158.400 C 87.047 158.400,86.402 158.985,85.723 159.700 M134.357 160.089 C 134.883 160.685,135.642 162.124,136.044 163.286 C 136.445 164.449,136.776 165.040,136.778 164.600 C 136.785 163.382,135.429 160.697,134.356 159.803 L 133.400 159.006 134.357 160.089 M211.845 161.012 C 212.210 161.569,212.586 161.947,212.682 161.851 C 212.919 161.614,211.884 160.000,211.495 160.000 C 211.322 160.000,211.480 160.456,211.845 161.012 M213.125 169.737 C 213.263 177.317,213.388 177.782,214.711 175.660 L 215.621 174.200 214.611 175.322 L 213.600 176.445 213.600 169.846 C 213.600 166.217,213.465 163.163,213.300 163.061 C 213.135 162.959,213.056 165.963,213.125 169.737 M223.439 166.020 C 220.453 168.422,216.000 173.013,216.000 173.689 C 216.000 173.883,216.871 172.997,217.935 171.721 C 219.954 169.299,223.102 166.455,225.756 164.655 C 226.612 164.075,227.117 163.600,226.880 163.600 C 226.642 163.600,225.094 164.689,223.439 166.020 M304.200 168.915 C 306.180 170.826,307.884 172.392,307.986 172.395 C 308.333 172.404,303.812 167.947,302.200 166.689 C 301.320 166.002,302.220 167.004,304.200 168.915 M313.160 180.200 C 313.834 181.505,314.388 182.228,314.385 181.800 C 314.383 181.580,314.014 180.950,313.564 180.400 C 313.021 179.736,312.885 179.669,313.160 180.200 M318.825 192.716 C 318.811 193.000,319.141 194.350,319.557 195.716 C 319.974 197.082,320.504 198.830,320.735 199.600 L 321.155 201.000 320.914 199.402 C 320.645 197.610,318.865 191.912,318.825 192.716 M239.682 201.096 C 241.158 201.173,243.678 201.173,245.282 201.097 C 246.887 201.021,245.680 200.958,242.600 200.958 C 239.520 200.957,238.207 201.019,239.682 201.096 M235.000 201.600 C 233.893 201.882,233.877 201.909,234.800 201.947 C 235.350 201.969,236.070 201.813,236.400 201.600 C 237.081 201.160,236.729 201.160,235.000 201.600 M248.800 201.594 C 249.130 201.811,249.835 201.991,250.367 201.994 C 251.651 202.002,251.325 201.775,249.600 201.458 C 248.615 201.277,248.378 201.318,248.800 201.594 M251.600 202.085 C 251.967 202.424,257.200 204.761,257.200 204.586 C 257.200 204.347,253.622 202.570,252.400 202.202 C 251.850 202.036,251.490 201.984,251.600 202.085 M321.256 202.400 C 321.256 202.730,321.411 203.360,321.600 203.800 C 321.817 204.304,321.944 204.378,321.944 204.000 C 321.944 203.670,321.789 203.040,321.600 202.600 C 321.383 202.096,321.256 202.022,321.256 202.400 M322.068 206.400 C 322.062 206.950,322.211 207.760,322.400 208.200 L 322.744 209.000 322.732 208.200 C 322.726 207.760,322.576 206.950,322.400 206.400 L 322.080 205.400 322.068 206.400 M263.560 211.400 C 264.234 212.705,264.788 213.428,264.785 213.000 C 264.783 212.780,264.414 212.150,263.964 211.600 C 263.421 210.936,263.285 210.869,263.560 211.400 M219.853 213.191 C 219.274 214.067,218.800 214.917,218.800 215.080 C 218.800 215.244,219.042 215.023,219.339 214.589 C 220.641 212.681,221.278 211.600,221.099 211.600 C 220.993 211.600,220.432 212.316,219.853 213.191 M322.868 212.600 C 322.874 213.040,323.024 213.850,323.200 214.400 L 323.520 215.400 323.532 214.400 C 323.538 213.850,323.389 213.040,323.200 212.600 L 322.856 211.800 322.868 212.600 M267.462 220.800 C 267.598 221.570,267.862 222.470,268.048 222.800 C 268.252 223.161,268.288 222.843,268.138 222.000 C 268.002 221.230,267.738 220.330,267.552 220.000 C 267.348 219.639,267.312 219.957,267.462 220.800 M323.875 222.400 C 324.001 224.050,324.171 225.475,324.252 225.567 C 324.547 225.899,324.311 221.374,323.983 220.400 C 323.775 219.785,323.734 220.554,323.875 222.400 M215.646 222.467 C 215.621 222.834,215.496 223.464,215.370 223.867 C 215.152 224.562,215.163 224.563,215.597 223.887 C 215.848 223.496,215.973 222.866,215.873 222.487 C 215.711 221.868,215.688 221.866,215.646 222.467 M268.501 225.000 C 268.505 225.880,268.587 226.193,268.683 225.695 C 268.779 225.198,268.775 224.478,268.675 224.095 C 268.575 223.713,268.496 224.120,268.501 225.000 M214.849 225.200 C 214.816 225.530,214.689 226.250,214.567 226.800 C 214.375 227.664,214.407 227.703,214.799 227.088 C 215.048 226.697,215.175 225.977,215.081 225.488 C 214.986 225.000,214.882 224.870,214.849 225.200 M214.054 229.000 C 214.019 229.440,213.889 230.250,213.767 230.800 C 213.575 231.663,213.607 231.703,213.998 231.090 C 214.247 230.699,214.377 229.889,214.286 229.290 C 214.178 228.579,214.097 228.479,214.054 229.000 M269.219 273.450 C 269.212 297.842,269.339 318.008,269.503 318.261 C 269.666 318.515,269.773 298.659,269.741 274.135 C 269.708 249.612,269.581 229.447,269.457 229.324 C 269.334 229.201,269.227 249.057,269.219 273.450 M213.298 275.867 C 213.244 299.004,213.084 318.264,212.941 318.667 C 212.751 319.206,212.805 319.288,213.143 318.978 C 213.486 318.664,213.577 307.758,213.500 276.178 L 213.396 233.800 213.298 275.867 M83.264 317.251 C 83.189 318.955,84.053 321.230,85.077 322.025 C 85.757 322.553,85.762 322.539,85.166 321.793 C 84.332 320.750,83.665 318.934,83.478 317.200 L 83.328 315.800 83.264 317.251 M136.229 318.629 C 136.081 319.215,136.038 319.772,136.132 319.866 C 136.227 319.960,136.424 319.558,136.571 318.971 C 136.719 318.385,136.762 317.828,136.668 317.734 C 136.573 317.640,136.376 318.042,136.229 318.629 M135.014 321.435 C 134.641 322.004,134.405 322.538,134.489 322.622 C 134.573 322.707,134.958 322.241,135.344 321.588 C 136.206 320.128,135.948 320.009,135.014 321.435 M272.000 323.000 C 272.746 323.770,273.447 324.400,273.557 324.400 C 273.667 324.400,273.146 323.770,272.400 323.000 C 271.654 322.230,270.953 321.600,270.843 321.600 C 270.733 321.600,271.254 322.230,272.000 323.000 M132.800 323.600 C 132.250 324.030,131.997 324.386,132.238 324.391 C 132.479 324.396,133.002 324.040,133.400 323.600 C 134.312 322.592,134.088 322.592,132.800 323.600 " stroke="none" fill="#3294c4" fill-rule="evenodd"></path></g></svg>